#N canvas 555 82 817 368 10;
#X declare -lib Gem;
#N canvas 0 50 614 349 (subpatch) 0;
#X array no1 100 float 3;
#A 0 2.18456e-06 4.36912e-06 6.55368e-06 8.73824e-06 1.09228e-05 1.31074e-05
1.52919e-05 1.74765e-05 1.9661e-05 2.18456e-05 2.40302e-05 2.62147e-05
2.83993e-05 3.05838e-05 3.27684e-05 3.4953e-05 3.71375e-05 3.93221e-05
4.15066e-05 4.36912e-05 4.58758e-05 4.80603e-05 5.02449e-05 5.24294e-05
5.4614e-05 5.67986e-05 5.89831e-05 6.11677e-05 6.33523e-05 6.55368e-05
6.77214e-05 6.99059e-05 7.20905e-05 7.4275e-05 7.64596e-05 7.86442e-05
8.08287e-05 8.30133e-05 8.51979e-05 8.73824e-05 8.9567e-05 9.17515e-05
9.39361e-05 9.61207e-05 9.83052e-05 0.00010049 0.000102674 0.000104859
0.000107043 0.000109228 0.000111413 0.000113597 0.000115782 0.000117966
0.000120151 0.000122335 0.00012452 0.000126705 0.000128889 0.000131074
0.000133258 0.000135443 0.000137627 0.000139812 0.000141996 0.000144181
0.000146366 0.00014855 0.000150735 0.000152919 0.000155104 0.000157288
0.000159473 0.000161657 0.000163842 0.000166027 0.000168211 0.000170396
0.00017258 0.000174765 0.000176949 0.000179134 0.000181319 0.000183503
0.000185688 0.000187872 0.000190057 0.000192241 0.000194426 0.00019661
0.000198795 0.00020098 0.000203164 0.000205349 0.000207533 0.000209718
0.000211902 0.000214087 0.000216271 0.000218456;
#X coords 0 349 1 348 200 140 0;
#X restore 347 14 graph;
#N canvas 673 506 181 269 env 0;
#X obj 26 35 t b b;
#X obj 26 225 tabwrite~ no1;
#X obj 53 179 vline~;
#X obj 26 6 inlet;
#X obj 68 203 throw~ env;
#X obj 53 61 bng 15 250 50 0 empty empty empty 17 7 0 10 -262144 -1
-1;
#X obj 53 83 pack f f f;
#N canvas 542 139 186 208 rand1 0;
#X obj 18 92 random 500;
#X floatatom 18 134 5 0 0 0 - - -;
#X msg 35 68 seed 29;
#X obj 18 154 outlet;
#X obj 18 45 metro 900;
#X obj 18 15 loadbang;
#X obj 18 113 cyclone/scale 0 500 5000 15000;
#X connect 0 0 6 0;
#X connect 1 0 3 0;
#X connect 2 0 0 0;
#X connect 4 0 0 0;
#X connect 5 0 4 0;
#X connect 6 0 1 0;
#X restore 81 11 pd rand1;
#N canvas 473 221 450 300 rand2 0;
#X obj 18 92 random 500;
#X floatatom 18 134 5 0 0 0 - - -;
#X obj 18 154 outlet;
#X obj 18 45 metro 900;
#X obj 18 15 loadbang;
#X msg 35 68 seed 40;
#X obj 18 113 cyclone/scale 0 500 500 3000;
#X connect 0 0 6 0;
#X connect 1 0 2 0;
#X connect 3 0 0 0;
#X connect 4 0 3 0;
#X connect 5 0 0 0;
#X connect 6 0 1 0;
#X restore 110 41 pd rand2;
#X msg 53 156 1 \$2 \, 0 \$3 \$2;
#X connect 0 0 1 0;
#X connect 0 1 5 0;
#X connect 2 0 4 0;
#X connect 2 0 1 0;
#X connect 3 0 0 0;
#X connect 5 0 6 0;
#X connect 6 0 9 0;
#X connect 7 0 6 1;
#X connect 8 0 6 2;
#X connect 9 0 2 0;
#X restore 38 105 pd env;
#X obj 38 43 bng 30 250 50 0 empty empty PlayNote 40 7 0 10 -260097
-99865 -1;
#N canvas 870 465 450 300 note 0;
#X obj 74 45 inlet;
#X obj 74 159 tabread notes;
#X floatatom 74 181 5 0 0 0 - - -;
#X obj 74 219 s note;
#X floatatom 74 127 5 0 0 0 - - -;
#X obj 74 73 cyclone/counter;
#X obj 74 95 % 7;
#X connect 0 0 5 0;
#X connect 1 0 2 0;
#X connect 4 0 1 0;
#X connect 5 0 6 0;
#X connect 6 0 4 0;
#X restore 696 8 pd note;
#N canvas 61 69 642 423 (subpatch) 0;
#X array notes 1000 float 3;
#A 0 49 52 49 53 58 52 51 49 50 51 52 53 220 220 220 220 220 220 220
220 220 220 220 220 220 220 220 220 220 220 220 220 220 220 220 220
220 220 220 220 220 220 220 220 220 220 220 220 220 220 220 220 220
220 220 220 220 220 220 220 220 220 220 220 220 220 220 220 220 220
220 220 220 220 220 220 220 220 220 220 220 220 220 220 220 220 220
220 220 220 220 220 220 220 220 220 220 220 220 220 220 220 220 220
220 220 220 220 220 220 220 220 220 220 220 220 220 220 220 220 220
220 220 220 220 220 220 220 220 220 220 220 220 220 220 220 220 220
220 220 220 220 220 220 220 220 220 220 220 220 220 220 220 220 220
220 220 220 220 220 220 220 220 220 220 220 220 220 220 220 220 220
220 220 220 220 220 220 220 220 220 220 220 220 220 220 220 220 220
220 220 220 220 220 220 220 220 220 220 220 220 220 220 220 220 220
220 220 220 220 220 220 220 220 220 220 220 220 220 220 220 220 220
220 220 220 220 220 220 220 220 220 220 220 220 220 220 220 220 220
220 220 220 220 220 220 220 220 220 220 220 220 220 220 220 220 220
220 220 220 220 220 220 220 220 220 220 220 220 220 220 220 220 220
220 220 220 220 220 220 220 220 220 220 220 220 220 220 220 220 220
220 220 220 220 220 220 220 220 220 220 220 220 220 220 220 220 220
220 220 220 220 220 220 220 220 220 220 220 220 220 220 220 220 220
220 220 220 220 220 220 220 220 220 220 220 220 220 220 220 220 220
220 220 220 220 220 220 220 220 220 220 220 220 220 220 220 220 220
220 220 220 220 220 220 220 220 220 220 220 220 220 220 220 220 220
220 220 220 220 220 220 220 220 220 220 220 220 220 220 220 220 220
220 220 220 220 220 220 220 220 220 220 220 220 220 220 220 220 220
220 220 220 220 220 220 220 220 220 220 220 220 220 220 220 220 220
220 220 220 220 220 220 220 220 220 220 220 220 220 220 220 220 220
220 220 220 220 220 220 220 220 220 220 220 220 220 220 220 220 220
220 220 220 220 220 220 220 220 220 220 220 220 220 220 220 220 220
220 220 220 220 220 220 220 220 220 220 220 220 220 220 220 220 220
220 220 220 220 220 220 220 220 220 220 220 220 220 220 220 220 220
220 220 220 220 220 220 220 220 220 220 220 220 220 220 220 220 220
220 220 220 220 220 220 220 220 220 220 220 220 220 220 220 220 220
220 220 220 220 220 220 220 220 220 220 220 220 220 220 220 220 220
220 220 220 220 220 220 220 220 220 220 220 220 220 220 220 220 220
220 220 220 220 220 220 220 220 220 220 220 220 220 220 220 220 220
220 220 220 220 220 220 220 220 220 220 220 220 220 220 220 220 220
220 220 220 220 220 220 220 220 220 220 220 220 220 220 220 220 220
220 220 220 220 220 220 220 220 220 220 220 220 220 220 220 220 220
220 220 220 220 220 220 220 220 220 220 220 220 220 220 220 220 220
220 220 220 220 220 220 220 220 220 220 220 220 220 220 220 220 220
220 220 220 220 220 220 220 220 220 220 220 220 220 220 220 220 220
220 220 220 220 220 220 220 220 220 220 220 220 220 220 220 220 220
220 220 220 220 220 220 220 220 220 220 220 220 220 220 220 220 220
220 220 220 220 220 220 220 220 220 220 220 220 220 220 220 220 220
220 220 220 220 220 220 220 220 220 220 220 220 220 220 220 220 220
220 220 220 220 220 220 220 220 220 220 220 220 220 220 220 220 220
220 220 220 220 220 220 220 220 220 220 220 220 220 220 220 220 220
220 220 220 220 220 220 220 220 220 220 220 220 220 220 220 220 220
220 220 220 220 220 220 220 220 220 220 220 220 220 220 220 220 220
220 220 220 220 220 220 220 220 220 220 220 220 220 220 220 220 220
220 220 220 220 220 220 220 220 220 220 220 220 220 220 220 220 220
220 220 220 220 220 220 220 220 220 220 220 220 220 220 220 220 220
220 220 220 220 220 220 220 220 220 220 220 220 220 220 220 220 220
220 220 220 220 220 220 220 220 220 220 220 220 220 220 220 220 220
220 220 220 220 220 220 220 220 220 220 220 220 220 220 220 220 220
220 220 220 220 220 220 220 220 220 220 220 220 220 220 220 220 220
220 220 220 220 220 220 220 220 220 220 220 220 220 220 220 220 220
220 220 220 220 220 220 220 220 220 220 220 220 220 220 220 220 220
220 220 220 220 220 220 220 220 220 220 220 220;
#X coords 0 423 100 422 200 140 0;
#X restore 699 28 graph;
#X text 318 15 Env;
#X text 657 29 Notes;
#N canvas 62 224 263 431 reverb 1;
#X obj 12 10 r~ reverb;
#X obj 74 386 dac~;
#X obj 45 31 r~ reverb2;
#X obj 12 92 meter4~;
#X obj 78 52 r~ reverb3;
#X obj 111 71 r~ reverb4;
#X obj 35 344 mono.rev~ 1 0.8 0 0.8;
#X obj 35 283 +~;
#X obj 65 253 +~;
#X obj 17 254 +~;
#X obj 192 43 r~ reverb5;
#X obj 35 321 *~;
#X obj 70 296 r~ sidechain;
#X obj 135 12 r~ reverb6;
#X obj 192 159 r~ reverb7;
#X obj 170 202 r~ reverb8;
#X obj 169 223 *~ 2;
#X connect 0 0 3 0;
#X connect 2 0 3 1;
#X connect 3 0 9 0;
#X connect 3 1 9 1;
#X connect 3 2 8 0;
#X connect 3 3 8 1;
#X connect 4 0 3 2;
#X connect 5 0 3 3;
#X connect 6 0 1 0;
#X connect 6 1 1 1;
#X connect 7 0 11 0;
#X connect 8 0 7 1;
#X connect 9 0 7 0;
#X connect 10 0 3 3;
#X connect 11 0 6 0;
#X connect 13 0 3 2;
#X connect 14 0 3 1;
#X connect 15 0 16 0;
#X connect 16 0 3 0;
#X restore 26 306 pd reverb;
#N canvas 333 475 308 192 noterand 0;
#X obj 39 24 inlet;
#X obj 39 70 random 1000;
#X floatatom 39 134 5 0 0 0 - - -;
#X obj 39 154 s note;
#X msg 130 39 seed 17;
#X obj 130 9 loadbang;
#X obj 39 113 cyclone/scale 0 1000 100 650;
#X obj 39 91 int;
#X connect 0 0 1 0;
#X connect 1 0 7 0;
#X connect 2 0 3 0;
#X connect 4 0 1 0;
#X connect 5 0 4 0;
#X connect 6 0 2 0;
#X connect 7 0 6 0;
#X restore 52 83 pd noterand;
#X obj 37 132 tgl 30 0 empty empty Drone 35 7 0 10 -99865 -228856 -1
0 1;
#N canvas 272 101 450 648 drone 0;
#X obj 21 69 inlet;
#X obj 28 451 *~;
#X floatatom 285 151 5 0 0 0 - - -;
#X obj 111 214 sig~;
#X obj 285 108 random 127;
#X obj 111 283 mtof~;
#X obj 112 347 vsaw~ \$1 0.6;
#X obj 112 381 *~;
#X obj 217 352 square~;
#X obj 213 327 *~ 0.76;
#X obj 63 339 osc~;
#X obj 63 313 *~ 0.5;
#X msg 22 106 \$1 10000;
#X obj 111 261 lop~ 0.15;
#X obj 113 403 lop.bw~ 440 4;
#X obj 125 553 s~ reverb2;
#X obj 129 318 s~ freq;
#X obj 110 96 r notenet;
#X floatatom 111 192 5 0 0 0 - - -;
#X obj 252 295 r pot1;
#X obj 328 151 r TCPon?;
#X obj 284 176 spigot 0;
#X obj 196 237 hsl 128 15 1 1.75 1 1 empty empty Pressure_Sensor 6
-8 0 10 -261682 -1 -1 12700 1;
#X floatatom 352 178 5 0 0 0 - - -;
#X obj 111 236 *~;
#X obj 224 536 s~ gemdrone;
#X obj 255 483 s gemdrone;
#X obj 255 423 env~;
#X obj 22 216 line;
#X obj 255 454 *;
#X obj 33 533 *~;
#X obj 175 484 r~ sidechain;
#X obj 188 197 r pressure;
#X obj 175 505 *~ 0.21;
#X obj 324 23 sel 0 1;
#X msg 301 56 20000;
#X obj 285 130 cyclone/scale 0 127 30 43;
#X obj 34 557 s~ dronemix;
#X obj 233 -1 r speedup;
#X msg 193 57 0.15;
#X msg 236 58 4;
#X msg 349 214 1.75;
#X msg 310 206 1;
#X obj 285 87 metro;
#X obj 31 493 *~;
#X obj 83 434 r acidsend;
#X msg 353 59 200;
#X msg 50 184 0 1000;
#X obj 50 139 r drumon;
#X obj 50 160 bng 15 250 50 0 empty empty empty 17 7 0 10 -262144 -1
-1;
#X obj 83 455 route 0 1;
#X msg 83 476 1;
#X msg 116 483 0;
#X connect 0 0 12 0;
#X connect 0 0 43 0;
#X connect 1 0 44 0;
#X connect 2 0 21 0;
#X connect 2 0 18 0;
#X connect 3 0 24 0;
#X connect 4 0 36 0;
#X connect 5 0 9 0;
#X connect 5 0 16 0;
#X connect 5 0 6 0;
#X connect 5 0 11 0;
#X connect 5 0 27 0;
#X connect 6 0 7 0;
#X connect 7 0 14 0;
#X connect 8 0 7 1;
#X connect 9 0 8 0;
#X connect 10 0 1 1;
#X connect 11 0 10 0;
#X connect 12 0 28 0;
#X connect 13 0 5 0;
#X connect 14 0 1 1;
#X connect 18 0 3 0;
#X connect 19 0 9 1;
#X connect 20 0 21 1;
#X connect 20 0 23 0;
#X connect 22 0 24 1;
#X connect 24 0 13 0;
#X connect 27 0 29 1;
#X connect 28 0 29 0;
#X connect 28 0 1 0;
#X connect 29 0 26 0;
#X connect 30 0 37 0;
#X connect 31 0 33 0;
#X connect 32 0 22 0;
#X connect 33 0 30 1;
#X connect 34 0 35 0;
#X connect 34 0 39 0;
#X connect 34 1 46 0;
#X connect 34 1 40 0;
#X connect 34 1 41 0;
#X connect 34 1 43 0;
#X connect 35 0 43 1;
#X connect 36 0 2 0;
#X connect 38 0 34 0;
#X connect 39 0 13 1;
#X connect 40 0 13 1;
#X connect 41 0 22 0;
#X connect 42 0 22 0;
#X connect 43 0 4 0;
#X connect 44 0 30 0;
#X connect 44 0 25 0;
#X connect 44 0 15 0;
#X connect 45 0 50 0;
#X connect 46 0 43 1;
#X connect 47 0 28 0;
#X connect 48 0 49 0;
#X connect 49 0 47 0;
#X connect 50 0 51 0;
#X connect 50 1 52 0;
#X connect 51 0 44 1;
#X connect 52 0 44 1;
#X restore 38 167 pd drone;
#X text 622 8 Old Schtuff;
#N canvas 324 409 450 407 noise 0;
#X obj 31 19 inlet;
#X obj 136 8 r~ freq;
#X floatatom 141 78 5 0 0 0 - - -;
#X obj 316 27 bng 15 250 50 0 empty empty empty 17 7 0 10 -262144 -1
-1;
#X obj 140 150 clip~ -1 1;
#X obj 119 250 *~;
#X obj 140 129 gbman~ 0.3 -0.2;
#X obj 140 102 * 32;
#X obj 242 150 clip~ -1 1;
#X obj 242 129 gbman~ 0.3 -0.2;
#X obj 141 52 env~;
#X obj 242 102 * 64;
#X obj 31 215 *~;
#X obj 149 316 s~ reverb3;
#X obj 31 86 vline~;
#X msg 31 65 \$1 10000;
#X obj 140 173 hip~ 4000;
#X obj 31 40 * 0.1;
#X obj 220 253 *~;
#X obj 241 176 hip~ 4000;
#X obj 46 125 brown~ 23;
#X obj 162 278 *~;
#X obj 257 40 r pot2;
#X obj 306 91 cyclone/scale 0 1 1 64;
#X obj 191 63 cyclone/scale 0 1 3 32;
#X obj 274 313 env~;
#X obj 274 336 s gemnoise;
#X obj 31 175 *~;
#X obj 63 149 r~ sidechain;
#X obj 117 360 s~ noisemixL;
#X obj 221 362 s~ noisemixR;
#X connect 0 0 17 0;
#X connect 1 0 10 0;
#X connect 2 0 7 0;
#X connect 2 0 11 0;
#X connect 4 0 16 0;
#X connect 5 0 21 0;
#X connect 5 0 29 0;
#X connect 6 0 4 0;
#X connect 7 0 6 0;
#X connect 8 0 19 0;
#X connect 9 0 8 0;
#X connect 10 0 2 0;
#X connect 11 0 9 0;
#X connect 12 0 5 0;
#X connect 12 0 18 0;
#X connect 14 0 27 0;
#X connect 15 0 14 0;
#X connect 16 0 5 1;
#X connect 17 0 15 0;
#X connect 18 0 21 1;
#X connect 18 0 30 0;
#X connect 19 0 18 1;
#X connect 20 0 12 1;
#X connect 21 0 13 0;
#X connect 21 0 25 0;
#X connect 22 0 23 0;
#X connect 22 0 24 0;
#X connect 23 0 11 1;
#X connect 24 0 7 1;
#X connect 25 0 26 0;
#X connect 27 0 12 0;
#X connect 28 0 27 1;
#X restore 37 233 pd noise;
#X obj 36 196 tgl 30 0 empty empty Noise 35 7 0 10 -45076 -228856 -1
0 1;
#N canvas 985 131 360 510 net 0;
#X obj 69 189 s notenet;
#X obj 19 37 unpackOSC;
#X floatatom 112 38 5 0 0 0 - - -;
#X obj 19 125 bng 15 250 50 0 empty empty empty 17 7 0 10 -262144 -1
-1;
#X obj 19 220 s notetrig;
#X obj 119 155 s pot1;
#X obj 169 124 s pot2;
#N canvas 694 162 74 148 TCPon 0;
#X obj 9 114 s TCPon?;
#X obj 9 10 inlet;
#X obj 9 31 - 1;
#X floatatom 9 52 5 0 0 0 - - -;
#X obj 9 72 abs;
#X floatatom 9 93 5 0 0 0 - - -;
#X connect 1 0 2 0;
#X connect 2 0 3 0;
#X connect 3 0 4 0;
#X connect 4 0 5 0;
#X connect 5 0 0 0;
#X restore 112 61 pd TCPon;
#X obj 148 13 loadbang;
#X msg 148 34 1;
#X obj 184 34 delay 10;
#X msg 184 55 0;
#X obj 19 245 r mastertempo;
#X obj 19 287 packOSC;
#X obj 19 317 tcpsend 25565;
#X msg 19 266 send /tempo \$1;
#X msg 144 271 disconnect;
#X floatatom 105 434 5 0 0 0 - - -;
#X obj 230 274 r~ L;
#X obj 271 273 r~ R;
#X msg 172 165 format float;
#X msg 230 185 grain 512;
#X obj 149 436 udpsend;
#X msg 218 348 format 16bit;
#X msg 228 383 format float;
#X obj 30 395 streamin~;
#X obj 107 410 streamout~;
#X obj 230 295 +~;
#X obj 218 465 dac~;
#X obj 218 444 streamin~ 25565;
#X msg 123 242 connect 213.202.144.13 9001;
#X obj 19 14 tcpreceive 6000;
#X obj 19 94 routeOSC /noteon /freq /pot1 /pot2 /transition;
#X obj 237 126 s transtrig;
#X connect 1 0 32 0;
#X connect 2 0 7 0;
#X connect 3 0 4 0;
#X connect 8 0 9 0;
#X connect 8 0 10 0;
#X connect 9 0 2 0;
#X connect 10 0 11 0;
#X connect 11 0 2 0;
#X connect 12 0 15 0;
#X connect 15 0 13 0;
#X connect 16 0 26 0;
#X connect 18 0 27 0;
#X connect 19 0 27 1;
#X connect 23 0 26 0;
#X connect 24 0 26 0;
#X connect 26 0 17 0;
#X connect 29 0 28 0;
#X connect 29 0 28 1;
#X connect 30 0 26 0;
#X connect 31 0 1 0;
#X connect 31 2 2 0;
#X connect 32 0 3 0;
#X connect 32 1 0 0;
#X connect 32 2 5 0;
#X connect 32 3 6 0;
#X connect 32 4 33 0;
#X restore 553 14 pd net;
#X text 415 14 TCP Connection to Ryan;
#X obj 37 16 r notetrig;
#N canvas 672 87 712 706 gem 0;
#X msg 21 47 create \, 1;
#X msg 41 71 0 \, destroy;
#X obj 573 51 declare -lib Gem;
#X obj 129 74 gemhead;
#X obj 214 311 pix_texture;
#X obj 22 96 gemwin;
#X obj 130 272 block~ 4096;
#X obj 299 57 r gemnoise;
#X floatatom 235 216 5 0 0 0 - - -;
#X obj 202 41 r gemdrone;
#X obj 202 82 osc~;
#X obj 299 78 phasor~;
#X obj 76 119 osc~;
#X obj 76 140 *~ 0.35;
#X obj 76 98 r note2;
#X obj 223 245 rotateXYZ;
#X obj 299 99 *~ 3.21;
#X obj 220 274 pix_kaleidoscope, f 23;
#X obj 212 350 sphere 6 50;
#X msg 129 304 quality 1;
#X obj 130 187 pix_sig2pix~ 64 64;
#X obj 202 62 * 8;
#X floatatom 513 122 5 0 0 0 - - -;
#X floatatom 519 156 5 0 0 0 - - -;
#X floatatom 492 49 5 0 0 0 - - -;
#X obj 468 238 translateXYZ;
#X obj 513 99 line;
#X msg 513 75 -7 0 \, 6 300;
#X obj 440 88 * 0.2;
#X obj 468 306 cube;
#X obj 482 22 cyclone/scale 0 4 -4 4;
#X obj 467 262 pix_texture;
#X msg 385 269 draw line;
#X obj 482 1 r kiktime;
#X obj 400 201 gemhead;
#X obj 307 537 rotateXYZ;
#X obj 340 509 scale 0 127 0 360;
#X msg 288 618 draw point;
#X floatatom 607 504 5 0 0 0 - - -;
#X floatatom 584 478 5 0 0 0 - - -;
#X floatatom 561 351 5 0 0 0 - - -;
#X obj 537 540 translateXYZ;
#X obj 561 326 cyclone/scale 0 4 -4 4;
#X obj 423 457 gemhead;
#X obj 561 305 r snrnum;
#X obj 584 396 rand.i -4 4;
#X obj 586 371 bng 15 250 50 0 empty empty empty 17 7 0 10 -262144
-1 -1;
#X obj 606 435 rand.i -2 2;
#X msg 286 508 width 4;
#X floatatom 489 467 5 0 0 0 - - -;
#X obj 469 500 colorRGB;
#X obj 488 440 line;
#X msg 214 553 draw line;
#X obj 298 596 sphere 3 3;
#X obj 483 588 rand.i 1 4;
#X obj 47 356 gemhead;
#X obj 78 464 bng 15 250 50 0 empty empty empty 17 7 0 10 -262144 -1
-1;
#X obj 78 429 r perctime;
#X obj 60 486 rand.f 0 1;
#X obj 73 520 rand.f 0 1;
#X obj 90 543 rand.f 0 1;
#X obj 25 263 gemhead;
#X obj 25 301 world_light;
#X floatatom 73 263 5 0 0 0 - - -;
#X obj 25 282 rotate 70 1 0 0;
#X obj 47 403 translateXYZ;
#X obj 45 598 colorRGB 0 1 1;
#X obj 338 487 lfo 0.7;
#X msg 39 19 fullscreen 0;
#X obj 45 648 square 13;
#X msg 124 371 -16;
#X msg 488 416 1 0 \, 0 450;
#X obj 306 561 alpha 1;
#X obj 452 535 rand.i 3 7;
#X connect 0 0 5 0;
#X connect 1 0 5 0;
#X connect 3 0 20 0;
#X connect 4 0 18 0;
#X connect 7 0 11 0;
#X connect 8 0 15 1;
#X connect 9 0 21 0;
#X connect 10 0 20 1;
#X connect 11 0 16 0;
#X connect 12 0 13 0;
#X connect 13 0 20 0;
#X connect 14 0 12 0;
#X connect 15 0 17 0;
#X connect 16 0 20 2;
#X connect 17 0 4 0;
#X connect 19 0 4 0;
#X connect 21 0 10 0;
#X connect 22 0 25 3;
#X connect 23 0 25 2;
#X connect 24 0 27 0;
#X connect 24 0 28 0;
#X connect 24 0 25 1;
#X connect 25 0 31 0;
#X connect 26 0 22 0;
#X connect 27 0 26 0;
#X connect 28 0 23 0;
#X connect 30 0 24 0;
#X connect 31 0 29 0;
#X connect 32 0 29 0;
#X connect 33 0 30 0;
#X connect 34 0 25 0;
#X connect 35 0 72 0;
#X connect 36 0 35 1;
#X connect 36 0 35 2;
#X connect 37 0 53 0;
#X connect 38 0 41 3;
#X connect 39 0 41 2;
#X connect 40 0 41 1;
#X connect 40 0 46 0;
#X connect 41 0 35 0;
#X connect 42 0 40 0;
#X connect 43 0 50 0;
#X connect 44 0 42 0;
#X connect 45 0 39 0;
#X connect 46 0 45 0;
#X connect 46 0 47 0;
#X connect 46 0 71 0;
#X connect 46 0 54 0;
#X connect 46 0 73 0;
#X connect 47 0 38 0;
#X connect 48 0 53 0;
#X connect 49 0 50 1;
#X connect 49 0 50 2;
#X connect 49 0 50 3;
#X connect 50 0 41 0;
#X connect 51 0 49 0;
#X connect 52 0 53 0;
#X connect 54 0 53 1;
#X connect 55 0 65 0;
#X connect 56 0 58 0;
#X connect 56 0 59 0;
#X connect 56 0 60 0;
#X connect 57 0 56 0;
#X connect 58 0 66 1;
#X connect 59 0 66 2;
#X connect 60 0 66 3;
#X connect 60 0 66 4;
#X connect 61 0 64 0;
#X connect 63 0 64 1;
#X connect 64 0 62 0;
#X connect 65 0 66 0;
#X connect 66 0 69 0;
#X connect 67 0 36 0;
#X connect 68 0 5 0;
#X connect 68 0 0 0;
#X connect 70 0 65 3;
#X connect 71 0 51 0;
#X connect 72 0 53 0;
#X connect 73 0 53 2;
#X restore 254 15 pd gem;
#X text 195 15 Graphics;
#X obj 36 259 meter;
#X floatatom 36 280 5 0 0 0 - - -;
#X obj 643 154 tgl 30 0 empty empty Drums 35 7 0 10 -257985 -66577
-1 0 1;
#N canvas 672 24 601 587 kik 0;
#X obj 29 283 inlet;
#X floatatom 155 356 5 0 0 0 - - -;
#X msg 153 397 open samples/BD/\$1.wav;
#X msg 296 394 speed \$1;
#X obj 295 361 + 1;
#X obj 295 340 random 199;
#X obj 75 437 play.file~;
#X obj 390 369 vline~;
#X obj 390 433 s~ sidechain;
#X obj 390 390 scale~ 0 1 1 0;
#X obj 155 314 metro 600;
#X obj 210 97 sel 0 1 2 3, f 13;
#X msg 229 167 0.75;
#X msg 248 146 0.5;
#X msg 266 123 0.25;
#X obj 210 34 bng 15 250 50 0 empty empty empty 17 7 0 10 -262144 -1
-1;
#X floatatom 210 76 5 0 0 0 - - -;
#X obj 210 13 metro 1000;
#X obj 341 504 vline~;
#X obj 247 510 *~;
#X msg 342 472 1 10 \, 0 2000;
#X obj 253 223 * 2;
#X obj 265 247 s kiktempo;
#X obj 390 411 *~ 0.25;
#X msg 390 346 1 20 \, 0 150 100;
#X obj 247 449 else/player~ 1;
#X obj 155 335 random 6;
#X obj 78 387 s kiktime;
#X obj 268 53 s kikbng;
#X obj 450 62 r pot;
#X floatatom 450 168 5 0 0 0 - - -;
#X obj 450 105 int;
#X obj 451 85 cyclone/scale 0 1 5 10;
#X floatatom 450 126 5 0 0 0 - - -;
#X obj 450 145 * 100;
#X obj 210 55 random 5;
#X floatatom 154 226 5 0 0 0 - - -;
#X obj 154 246 s mastertempo;
#X obj 247 531 s~ kickmix;
#X obj 415 263 dust~;
#X obj 253 203 * 400;
#X msg 211 189 0.75;
#X msg 318 114 0.33;
#X obj 161 545 s~ reverb8;
#X obj 247 469 *~ 0.15;
#X connect 0 0 10 0;
#X connect 0 0 17 0;
#X connect 1 0 2 0;
#X connect 1 0 27 0;
#X connect 2 0 25 0;
#X connect 4 0 3 0;
#X connect 5 0 4 0;
#X connect 7 0 9 0;
#X connect 7 0 19 1;
#X connect 9 0 23 0;
#X connect 10 0 5 0;
#X connect 10 0 24 0;
#X connect 10 0 26 0;
#X connect 11 0 41 0;
#X connect 11 1 12 0;
#X connect 11 2 13 0;
#X connect 11 3 14 0;
#X connect 11 4 42 0;
#X connect 12 0 40 0;
#X connect 13 0 40 0;
#X connect 14 0 40 0;
#X connect 15 0 28 0;
#X connect 15 0 35 0;
#X connect 16 0 11 0;
#X connect 17 0 15 0;
#X connect 19 0 38 0;
#X connect 19 0 43 0;
#X connect 20 0 18 0;
#X connect 21 0 10 1;
#X connect 21 0 22 0;
#X connect 23 0 8 0;
#X connect 24 0 7 0;
#X connect 25 0 44 0;
#X connect 26 0 1 0;
#X connect 29 0 32 0;
#X connect 31 0 33 0;
#X connect 32 0 31 0;
#X connect 33 0 34 0;
#X connect 34 0 30 0;
#X connect 35 0 16 0;
#X connect 36 0 37 0;
#X connect 40 0 21 0;
#X connect 40 0 36 0;
#X connect 41 0 40 0;
#X connect 42 0 40 0;
#X connect 44 0 19 0;
#X restore 644 190 pd kik;
#N canvas 736 109 704 612 perc 0;
#X obj 49 123 inlet;
#X floatatom 173 288 5 0 0 0 - - -;
#X obj 266 359 else/player~;
#X msg 343 308 speed \$1;
#X obj 342 275 + 1;
#X obj 342 254 random 199;
#X obj 135 373 play.file~;
#X obj 174 246 random 11;
#X obj 174 267 + 1;
#X msg 172 308 open samples/PERC/\$1.wav;
#X obj 22 18 lfnoise 2 0 78;
#X obj 174 225 metro 50;
#X obj 22 39 cyclone/scale 0 127 50 200;
#X obj 253 513 pan2~;
#X obj 290 412 random 100;
#X obj 291 442 cyclone/scale 0 100 -1 1;
#X floatatom 291 463 5 0 0 0 - - -;
#X obj 266 380 hip~ 500;
#X obj 196 426 s~ reverb5;
#X obj 252 481 *~;
#X obj 96 432 r~ sidechain;
#X obj 518 109 sel 0 1 2 3, f 13;
#X msg 519 201 1;
#X msg 537 179 0.75;
#X msg 556 158 0.5;
#X msg 574 135 0.25;
#X obj 518 46 bng 15 250 50 0 empty empty empty 17 7 0 10 -262144 -1
-1;
#X obj 561 214 * 200;
#X obj 518 67 random 4;
#X msg 626 126 0.33;
#X floatatom 518 88 5 0 0 0 - - -;
#X obj 96 452 *~ 0.25;
#X obj 221 101 r kiktempo;
#X obj 536 375 vline~;
#X obj 266 401 *~;
#X msg 536 352 1 10 \, 0 200 200;
#X obj 252 153 + 1;
#X obj 513 534 rand.f;
#X obj 251 132 random 2;
#X floatatom 252 195 5 0 0 0 - - -;
#X obj 219 198 *;
#X obj 371 25 metro 500;
#X obj 92 258 s perctime;
#X obj 196 561 s~ percmixL;
#X obj 293 553 s~ percmixR;
#X obj 163 135 r spd;
#X msg 163 156 250;
#X obj 151 114 r drumon;
#X obj 252 174 * 0.25;
#X connect 0 0 11 0;
#X connect 0 0 41 0;
#X connect 1 0 9 0;
#X connect 2 0 17 0;
#X connect 3 0 2 0;
#X connect 4 0 3 0;
#X connect 5 0 4 0;
#X connect 7 0 8 0;
#X connect 8 0 1 0;
#X connect 9 0 2 0;
#X connect 10 0 12 0;
#X connect 11 0 5 0;
#X connect 11 0 7 0;
#X connect 11 0 14 0;
#X connect 11 0 35 0;
#X connect 11 0 42 0;
#X connect 13 0 43 0;
#X connect 13 1 44 0;
#X connect 14 0 15 0;
#X connect 15 0 16 0;
#X connect 16 0 13 1;
#X connect 17 0 34 0;
#X connect 19 0 13 0;
#X connect 20 0 31 0;
#X connect 21 0 22 0;
#X connect 21 1 23 0;
#X connect 21 2 24 0;
#X connect 21 3 25 0;
#X connect 21 4 29 0;
#X connect 22 0 27 0;
#X connect 23 0 27 0;
#X connect 24 0 27 0;
#X connect 25 0 27 0;
#X connect 26 0 28 0;
#X connect 28 0 30 0;
#X connect 29 0 27 0;
#X connect 30 0 21 0;
#X connect 31 0 19 1;
#X connect 32 0 40 0;
#X connect 33 0 34 1;
#X connect 34 0 18 0;
#X connect 34 0 19 0;
#X connect 35 0 33 0;
#X connect 36 0 48 0;
#X connect 38 0 36 0;
#X connect 39 0 40 1;
#X connect 40 0 11 1;
#X connect 41 0 38 0;
#X connect 45 0 46 0;
#X connect 46 0 40 0;
#X connect 47 0 46 0;
#X connect 48 0 39 0;
#X restore 574 191 pd perc;
#X obj 574 155 tgl 30 0 empty percon Perc 35 7 0 10 -4032 -66577 -1
0 1;
#X obj 720 156 tgl 30 0 empty empty Snares 35 7 0 10 -260097 -66577
-1 0 1;
#N canvas 423 145 631 517 snr 0;
#X obj 31 106 inlet;
#X obj 242 275 else/player~;
#X msg 316 221 speed \$1;
#X obj 315 188 + 1;
#X obj 315 167 random 199;
#X obj 111 289 play.file~;
#X obj 150 141 metro 500;
#X obj 92 512 lfnoise 1 0 94;
#X msg 150 225 open samples/SNR/\$1.wav;
#X obj 150 183 + 1;
#X obj 150 162 random 5;
#X obj 92 533 cyclone/scale 0 127 75 500;
#X obj 338 369 s~ reverb4;
#X obj 242 319 *~;
#X obj 355 278 r~ sidechain;
#X obj 242 296 hip~ 300;
#X obj 72 215 s snrnum;
#X obj 242 340 *~ 0.2;
#X obj 205 17 r kiktempo;
#X obj 236 69 + 1;
#X obj 235 48 random 2;
#X floatatom 236 111 5 0 0 0 - - -;
#X obj 203 114 *;
#X obj 130 32 metro 2000;
#X obj 242 361 s~ snrmix;
#X obj 236 90 * 2;
#X connect 0 0 6 0;
#X connect 0 0 23 0;
#X connect 1 0 15 0;
#X connect 2 0 1 0;
#X connect 3 0 2 0;
#X connect 4 0 3 0;
#X connect 6 0 4 0;
#X connect 6 0 10 0;
#X connect 7 0 11 0;
#X connect 8 0 1 0;
#X connect 9 0 8 0;
#X connect 10 0 9 0;
#X connect 10 0 16 0;
#X connect 13 0 17 0;
#X connect 14 0 13 1;
#X connect 15 0 13 0;
#X connect 15 0 12 0;
#X connect 17 0 24 0;
#X connect 18 0 22 0;
#X connect 19 0 25 0;
#X connect 20 0 19 0;
#X connect 21 0 22 1;
#X connect 22 0 6 1;
#X connect 23 0 20 0;
#X connect 25 0 21 0;
#X restore 720 191 pd snr;
#X obj 643 85 tgl 15 0 empty drumon empty 17 7 0 10 -262144 -1 -1 0
1;
#N canvas 773 132 450 400 arduino 0;
#X obj 74 143 arduino;
#X obj 74 164 route digital analog;
#X obj 74 185 route 2;
#X obj 132 186 route 0 1;
#X msg 5 125 devices;
#X msg 6 9 close;
#X msg 52 11 open 6;
#X floatatom 157 209 5 0 0 0 - - -;
#X msg 115 117 pinMode 14 2;
#X msg 95 96 pinMode 15 2;
#X floatatom 133 252 5 0 0 0 - - -;
#X msg 83 67 pinMode 2 0;
#X obj 74 206 route 1;
#X obj 74 229 tgl 15 0 empty empty empty 17 7 0 10 -262144 -1 -1 0
1;
#X obj 133 319 s pressure;
#X obj 157 229 s pot;
#X obj 74 249 s but;
#X floatatom 132 293 5 0 0 0 - - -;
#X obj 132 272 cyclone/scale 0 0.225 1 1.75;
#X connect 0 0 1 0;
#X connect 1 0 2 0;
#X connect 1 1 3 0;
#X connect 2 0 12 0;
#X connect 3 0 10 0;
#X connect 3 1 7 0;
#X connect 4 0 0 0;
#X connect 5 0 0 0;
#X connect 6 0 0 0;
#X connect 7 0 15 0;
#X connect 8 0 0 0;
#X connect 9 0 0 0;
#X connect 9 0 8 0;
#X connect 10 0 18 0;
#X connect 11 0 0 0;
#X connect 11 0 9 0;
#X connect 12 0 13 0;
#X connect 13 0 16 0;
#X connect 17 0 14 0;
#X connect 18 0 17 0;
#X restore 706 59 pd arduino;
#X obj 643 64 r but;
#N canvas 344 114 614 672 mixer 1;
#X obj 48 186 mix4~;
#X obj 270 196 mix2~;
#X obj 171 418 +~;
#X obj 424 208 mix2~;
#X obj 19 126 r~ notemix;
#X obj 89 127 r~ dronemix;
#X obj 150 20 r~ snrmix;
#X obj 320 157 r~ percmixR;
#X obj 309 127 r~ percmixL;
#X obj 390 122 r~ noisemixL;
#X obj 455 160 r~ noisemixR;
#X obj 89 531 s~ L;
#X obj 467 536 s~ R;
#X obj 278 441 meter2~;
#X obj 281 624 dac~;
#X obj 92 61 r~ kickmix;
#X obj 249 594 *~ 2, f 5;
#X obj 328 591 *~ 2;
#X connect 0 0 2 0;
#X connect 0 0 11 0;
#X connect 0 0 13 0;
#X connect 0 1 2 1;
#X connect 0 1 12 0;
#X connect 0 1 13 1;
#X connect 1 0 11 0;
#X connect 1 0 13 0;
#X connect 1 1 12 0;
#X connect 1 1 13 1;
#X connect 3 0 11 0;
#X connect 3 1 12 0;
#X connect 3 1 13 1;
#X connect 4 0 0 0;
#X connect 5 0 0 1;
#X connect 6 0 0 3;
#X connect 7 0 1 1;
#X connect 8 0 1 0;
#X connect 9 0 3 0;
#X connect 10 0 3 1;
#X connect 13 0 16 0;
#X connect 13 1 17 0;
#X connect 15 0 0 2;
#X connect 16 0 14 0;
#X connect 17 0 14 1;
#X restore 341 318 pd mixer;
#N canvas 667 60 242 235 note 0;
#X obj 114 26 catch~ env;
#X obj 131 55 r note;
#N canvas 733 224 450 300 synth 0;
#X obj 174 27 inlet;
#X obj 185 205 outlet~;
#X obj 174 100 osc~;
#X obj 219 99 osc~;
#X obj 265 99 osc~;
#X obj 185 135 *~;
#X obj 100 101 phasor~;
#X obj 100 69 * 0.5;
#X obj 265 75 * 8.13;
#X obj 220 74 * 3.07;
#X connect 0 0 2 0;
#X connect 0 0 7 0;
#X connect 0 0 8 0;
#X connect 0 0 9 0;
#X connect 2 0 5 0;
#X connect 3 0 5 1;
#X connect 4 0 5 1;
#X connect 5 0 1 0;
#X connect 6 0 1 0;
#X connect 7 0 6 0;
#X connect 8 0 4 0;
#X connect 9 0 3 0;
#X restore 131 82 pd synth;
#X obj 151 176 s~ reverb;
#X obj 114 149 *~;
#X obj 131 103 lop~ 600;
#X obj 7 200 s note2;
#X obj 15 173 env~;
#X obj 96 178 *~ 0.15;
#X obj 96 199 s~ notemix;
#X connect 0 0 4 0;
#X connect 1 0 2 0;
#X connect 2 0 5 0;
#X connect 4 0 3 0;
#X connect 4 0 7 0;
#X connect 4 0 8 0;
#X connect 5 0 4 1;
#X connect 7 0 6 0;
#X connect 8 0 9 0;
#X restore 126 112 pd note;
#X text 288 202 very resonant lowpass for drums;
#N canvas 792 489 535 234 transition 1;
#X obj 58 25 tgl 15 0 empty empty empty 17 7 0 10 -262144 -1 -1 0 1
;
#X obj 95 69 s spd;
#X obj 13 157 s percon;
#X obj 89 133 bng 15 250 50 0 empty empty empty 17 7 0 10 -262144 -1
-1;
#X obj 180 110 bng 15 250 50 0 empty empty empty 17 7 0 10 -262144
-1 -1;
#X floatatom 162 167 5 0 0 0 - - -;
#X floatatom 202 170 5 0 0 0 - - -;
#X obj 270 82 bng 15 250 50 0 empty empty empty 17 7 0 10 -262144 -1
-1;
#X obj 202 190 sel 1;
#X obj 471 128 bng 15 250 50 0 empty empty empty 17 7 0 10 -262144
-1 -1;
#X obj 471 148 s drumon;
#X obj 305 127 s~ reverb6;
#X obj 268 172 dac~;
#X obj 76 92 metro 400;
#N canvas 860 185 465 369 acid1 0;
#X obj 37 10 inlet;
#X obj 169 345 dac~;
#X obj 21 232 vline~;
#X msg 21 206 1 50 \, 0 100 200;
#X obj 67 106 line;
#X obj 360 33 sel 0 1 2 3 4;
#X msg 362 147 1;
#X msg 377 125 0.75;
#X msg 391 103 0.5;
#X msg 406 81 0.25;
#X msg 420 58 0.33;
#X obj 184 166 else/player~ samples/bass.wav;
#X obj 109 65 bng 15 250 50 0 empty empty empty 17 7 0 10 -262144 -1
-1;
#X obj 310 65 *;
#X msg 206 100 speed \$1;
#X msg 65 83 250 50 0 100 100;
#X obj 183 282 bandpass~ 0 1;
#X obj 183 187 *~ 0.1;
#X obj 206 79 rand.f 200 400;
#X connect 0 0 3 0;
#X connect 0 0 15 0;
#X connect 0 0 12 0;
#X connect 0 0 18 0;
#X connect 3 0 2 0;
#X connect 4 0 16 1;
#X connect 5 0 6 0;
#X connect 5 1 7 0;
#X connect 5 2 8 0;
#X connect 5 3 9 0;
#X connect 5 4 10 0;
#X connect 6 0 13 1;
#X connect 7 0 13 1;
#X connect 8 0 13 1;
#X connect 9 0 13 1;
#X connect 10 0 13 1;
#X connect 11 0 17 0;
#X connect 12 0 11 0;
#X connect 14 0 11 0;
#X connect 15 0 4 0;
#X connect 16 0 1 0;
#X connect 16 0 1 1;
#X connect 17 0 16 0;
#X connect 18 0 14 0;
#X restore 87 162 pd acid1;
#X obj 136 30 inlet;
#X obj 269 101 else/player~ samples/aphexacid.wav;
#X msg 318 31 speed 120;
#X obj 396 198 tgl 15 1 acidsend empty Acid_Send 17 7 0 10 -262130
-1 -1 0 1;
#X obj 211 61 s speedup;
#X obj 162 146 counter 14;
#X obj 395 132 loadbang;
#X obj 436 172 s bamon;
#X obj 268 151 *~ 0.25;
#X connect 0 0 1 0;
#X connect 0 0 2 0;
#X connect 0 0 13 0;
#X connect 0 0 19 0;
#X connect 4 0 20 2;
#X connect 6 0 8 0;
#X connect 7 0 16 0;
#X connect 7 0 18 0;
#X connect 8 1 7 0;
#X connect 8 1 0 0;
#X connect 9 0 10 0;
#X connect 9 0 22 0;
#X connect 13 0 2 0;
#X connect 13 0 3 0;
#X connect 13 0 20 0;
#X connect 15 0 0 0;
#X connect 16 0 11 0;
#X connect 16 0 23 0;
#X connect 16 2 9 0;
#X connect 17 0 16 0;
#X connect 20 0 5 0;
#X connect 20 2 6 0;
#X connect 23 0 12 0;
#X connect 23 0 12 1;
#X restore 197 312 pd transition;
#X obj 724 295 tgl 30 0 empty acidon Acid 35 7 0 10 -204786 -66577
-1 0 1;
#N canvas 725 312 450 300 acid1 1;
#X obj 37 37 inlet;
#X obj 37 104 metro;
#N canvas 706 92 465 415 acid2 1;
#X obj 37 10 inlet;
#X obj 169 345 dac~;
#X obj 21 232 vline~;
#X msg 21 206 1 50 \, 0 100 200;
#X obj 360 33 sel 0 1 2 3 4;
#X msg 362 147 1;
#X msg 391 103 0.5;
#X msg 420 58 0.33;
#X obj 184 166 else/player~ samples/bass.wav;
#X obj 108 65 bng 15 250 50 0 empty empty empty 17 7 0 10 -262144 -1
-1;
#X msg 206 139 speed \$1;
#X floatatom 275 124 5 0 0 0 - - -;
#X obj 263 9 rand.i 0 4;
#X obj 275 103 * 230;
#X obj 227 239 s~ reverb7;
#X obj 182 186 *~ 0.05;
#X msg 406 81 0.35;
#X msg 377 125 0.65;
#X connect 0 0 3 0;
#X connect 0 0 9 0;
#X connect 3 0 2 0;
#X connect 4 0 5 0;
#X connect 4 1 17 0;
#X connect 4 2 6 0;
#X connect 4 3 16 0;
#X connect 4 4 7 0;
#X connect 5 0 13 0;
#X connect 6 0 13 0;
#X connect 7 0 13 0;
#X connect 8 0 15 0;
#X connect 9 0 8 0;
#X connect 9 0 12 0;
#X connect 10 0 8 0;
#X connect 12 0 4 0;
#X connect 13 0 10 0;
#X connect 13 0 11 0;
#X connect 15 0 1 0;
#X connect 15 0 1 1;
#X connect 15 0 14 0;
#X connect 16 0 13 0;
#X connect 17 0 13 0;
#X restore 37 145 pd acid2;
#X obj 196 101 r kiktempo;
#X obj 252 153 + 1;
#X obj 251 132 random 2;
#X floatatom 252 195 5 0 0 0 - - -;
#X obj 219 198 *;
#X obj 252 174 * 0.25;
#X obj 219 219 * 2;
#X obj 271 92 metro 200;
#X msg 140 104 500;
#X connect 0 0 1 0;
#X connect 0 0 10 0;
#X connect 1 0 2 0;
#X connect 3 0 7 0;
#X connect 4 0 8 0;
#X connect 5 0 4 0;
#X connect 6 0 7 1;
#X connect 7 0 9 0;
#X connect 8 0 6 0;
#X connect 9 0 1 1;
#X connect 10 0 5 0;
#X connect 11 0 7 0;
#X restore 724 330 pd acid1;
#X obj 197 275 tgl 30 0 speedup drumon Transition 35 7 0 10 -228856
-66577 -1 0 1;
#X obj 647 110 delay 500 2000 msec;
#X obj 197 232 r transtrig;
#X obj 197 253 bng 15 250 50 0 empty empty empty 17 7 0 10 -262144
-1 -1;
#X text 362 113 nice lol;
#X obj 683 128 delay 500 2250 msec;
#X connect 2 0 1 0;
#X connect 2 0 8 0;
#X connect 9 0 10 0;
#X connect 13 0 12 0;
#X connect 16 0 2 0;
#X connect 19 0 20 0;
#X connect 21 0 22 0;
#X connect 24 0 23 0;
#X connect 25 0 26 0;
#X connect 27 0 37 0;
#X connect 27 0 41 0;
#X connect 27 0 24 0;
#X connect 29 0 27 0;
#X connect 34 0 35 0;
#X connect 36 0 33 0;
#X connect 37 0 21 0;
#X connect 38 0 39 0;
#X connect 39 0 36 0;
#X connect 41 0 25 0;
